<svg xmlns:xlink="http://www.w3.org/1999/xlink" width="1920" xmlns="http://www.w3.org/2000/svg" height="115" id="screenshot-8ca14683-80fd-804b-8002-4975f7a75f91" viewBox="0 0 1920 115" style="-webkit-print-color-adjust: exact;" fill="none" version="1.1"><g id="shape-8ca14683-80fd-804b-8002-4975f7a75f91"><defs><clipPath class="frame-clip-def frame-clip" id="frame-clip-8ca14683-80fd-804b-8002-4975f7a75f91-rumext-id-1"><rect rx="0" ry="0" x="0" y="0" width="1920" height="115" transform="matrix(1.000000, 0.000000, 0.000000, 1.000000, 0.000000, 0.000000)"/></clipPath></defs><g clip-path="url(#frame-clip-8ca14683-80fd-804b-8002-4975f7a75f91-rumext-id-1)"><clipPath class="frame-clip-def frame-clip" id="frame-clip-8ca14683-80fd-804b-8002-4975f7a75f91-rumext-id-1"><rect rx="0" ry="0" x="0" y="0" width="1920" height="115" transform="matrix(1.000000, 0.000000, 0.000000, 1.000000, 0.000000, 0.000000)"/></clipPath><g class="fills" id="fills-8ca14683-80fd-804b-8002-4975f7a75f91"><rect rx="0" ry="0" x="0" y="0" transform="matrix(1.000000, 0.000000, 0.000000, 1.000000, 0.000000, 0.000000)" width="1920" height="115" class="frame-background"/></g><g class="frame-children"><g id="shape-8ca14683-80fd-804b-8002-4975f7a75f92"><g class="fills" id="fills-8ca14683-80fd-804b-8002-4975f7a75f92"><path rx="0" ry="0" d="M1920.000,0.416L1920.000,115.234L0.000,115.234L0.000,0.234C238.798,43.824,580.847,71.144,960.500,71.144C1339.624,71.144,1681.248,43.900,1920.000,0.416Z" style="fill: rgb(255, 255, 255); fill-opacity: 1;"/></g></g></g></g></g></svg>