<svg id="visual" viewBox="0 0 900 600" width="900" height="600" xmlns="http://www.w3.org/2000/svg" xmlns:xlink="http://www.w3.org/1999/xlink" version="1.1"><rect x="0" y="0" width="900" height="600" fill="#fff"></rect><path d="M0 362L21.5 361.2C43 360.3 86 358.7 128.8 368.5C171.7 378.3 214.3 399.7 257.2 402.8C300 406 343 391 385.8 386.5C428.7 382 471.3 388 514.2 396.8C557 405.7 600 417.3 642.8 415.7C685.7 414 728.3 399 771.2 386.7C814 374.3 857 364.7 878.5 359.8L900 355L900 601L878.5 601C857 601 814 601 771.2 601C728.3 601 685.7 601 642.8 601C600 601 557 601 514.2 601C471.3 601 428.7 601 385.8 601C343 601 300 601 257.2 601C214.3 601 171.7 601 128.8 601C86 601 43 601 21.5 601L0 601Z" fill="#ffffff"></path><path d="M0 417L21.5 420C43 423 86 429 128.8 429.7C171.7 430.3 214.3 425.7 257.2 420.8C300 416 343 411 385.8 415.8C428.7 420.7 471.3 435.3 514.2 434.8C557 434.3 600 418.7 642.8 409.8C685.7 401 728.3 399 771.2 410.8C814 422.7 857 448.3 878.5 461.2L900 474L900 601L878.5 601C857 601 814 601 771.2 601C728.3 601 685.7 601 642.8 601C600 601 557 601 514.2 601C471.3 601 428.7 601 385.8 601C343 601 300 601 257.2 601C214.3 601 171.7 601 128.8 601C86 601 43 601 21.5 601L0 601Z" fill="#c5cbd8"></path><path d="M0 457L21.5 460.8C43 464.7 86 472.3 128.8 471.7C171.7 471 214.3 462 257.2 464.5C300 467 343 481 385.8 478.8C428.7 476.7 471.3 458.3 514.2 456.3C557 454.3 600 468.7 642.8 475.2C685.7 481.7 728.3 480.3 771.2 473.7C814 467 857 455 878.5 449L900 443L900 601L878.5 601C857 601 814 601 771.2 601C728.3 601 685.7 601 642.8 601C600 601 557 601 514.2 601C471.3 601 428.7 601 385.8 601C343 601 300 601 257.2 601C214.3 601 171.7 601 128.8 601C86 601 43 601 21.5 601L0 601Z" fill="#8d99b3"></path><path d="M0 490L21.5 491.2C43 492.3 86 494.7 128.8 498.2C171.7 501.7 214.3 506.3 257.2 508.5C300 510.7 343 510.3 385.8 507C428.7 503.7 471.3 497.3 514.2 496C557 494.7 600 498.3 642.8 504C685.7 509.7 728.3 517.3 771.2 522.2C814 527 857 529 878.5 530L900 531L900 601L878.5 601C857 601 814 601 771.2 601C728.3 601 685.7 601 642.8 601C600 601 557 601 514.2 601C471.3 601 428.7 601 385.8 601C343 601 300 601 257.2 601C214.3 601 171.7 601 128.8 601C86 601 43 601 21.5 601L0 601Z" fill="#566a8f"></path><path d="M0 550L21.5 554C43 558 86 566 128.8 566.8C171.7 567.7 214.3 561.3 257.2 554.7C300 548 343 541 385.8 543.8C428.7 546.7 471.3 559.3 514.2 564.5C557 569.7 600 567.3 642.8 562.7C685.7 558 728.3 551 771.2 551.8C814 552.7 857 561.3 878.5 565.7L900 570L900 601L878.5 601C857 601 814 601 771.2 601C728.3 601 685.7 601 642.8 601C600 601 557 601 514.2 601C471.3 601 428.7 601 385.8 601C343 601 300 601 257.2 601C214.3 601 171.7 601 128.8 601C86 601 43 601 21.5 601L0 601Z" fill="#173f6c"></path></svg>