<svg xmlns:xlink="http://www.w3.org/1999/xlink" width="1920" xmlns="http://www.w3.org/2000/svg" height="115" id="screenshot-8ca14683-80fd-804b-8002-497592b7ff67" viewBox="0 0 1920 115" style="-webkit-print-color-adjust: exact;" fill="none" version="1.1"><g id="shape-8ca14683-80fd-804b-8002-497592b7ff67"><defs><clipPath class="frame-clip-def frame-clip" id="frame-clip-8ca14683-80fd-804b-8002-497592b7ff67-rumext-id-1"><rect rx="0" ry="0" x="0" y="0" width="1920" height="115" transform="matrix(1.000000, 0.000000, 0.000000, 1.000000, 0.000000, 0.000000)"/></clipPath></defs><g clip-path="url(#frame-clip-8ca14683-80fd-804b-8002-497592b7ff67-rumext-id-1)"><clipPath class="frame-clip-def frame-clip" id="frame-clip-8ca14683-80fd-804b-8002-497592b7ff67-rumext-id-1"><rect rx="0" ry="0" x="0" y="0" width="1920" height="115" transform="matrix(1.000000, 0.000000, 0.000000, 1.000000, 0.000000, 0.000000)"/></clipPath><g class="fills" id="fills-8ca14683-80fd-804b-8002-497592b7ff67"><rect rx="0" ry="0" x="0" y="0" transform="matrix(1.000000, 0.000000, 0.000000, 1.000000, 0.000000, 0.000000)" width="1920" height="115" class="frame-background"/></g><g class="frame-children"><g id="shape-8ca14683-80fd-804b-8002-489879de9758"><g class="fills" id="fills-8ca14683-80fd-804b-8002-489879de9758"><path rx="0" ry="0" d="M959.500,44.323C580.376,44.323,238.752,71.568,-0.000,115.051L-0.000,0.234L1920.000,0.234L1920.000,115.234C1681.202,71.644,1339.153,44.323,959.500,44.323Z" style="fill: rgb(255, 255, 255); fill-opacity: 1;"/></g></g></g></g></g></svg>